<svg id="Layer_3" enable-background="new 0 0 64 64" height="512" viewBox="0 0 64 64" width="512" xmlns="http://www.w3.org/2000/svg"><circle cx="49" cy="15" fill="#c7e2fc" r="13"/><path d="m36 15c0 3.101 1.089 5.945 2.901 8.179 1.438.522 2.982.821 4.599.821 7.456 0 13.5-6.044 13.5-13.5 0-2.574-.733-4.971-1.983-7.018-1.801-.942-3.844-1.482-6.017-1.482-7.18 0-13 5.82-13 13z" fill="#ebf7fe"/><g fill="#78b75b"><path d="m45.372 19.343 2.628.657-.657-2.628c-.224-.898-.689-1.718-1.343-2.372-.654-.654-1.474-1.119-2.372-1.343l-2.628-.657.657 2.628c.224.898.689 1.718 1.343 2.372.654.654 1.474 1.119 2.372 1.343z"/><path d="m52.628 19.343-2.628.657.657-2.628c.224-.898.689-1.718 1.343-2.372.654-.654 1.474-1.119 2.372-1.343l2.628-.657-.657 2.628c-.224.898-.689 1.718-1.343 2.372-.654.654-1.474 1.119-2.372 1.343z"/><path d="m48.342 18.683.658 1.317.658-1.317c.883-1.764 1.342-3.71 1.342-5.683 0-1.973-.459-3.919-1.342-5.683l-.658-1.317-.658 1.317c-.883 1.764-1.342 3.71-1.342 5.683 0 1.973.459 3.919 1.342 5.683z"/></g><path d="m31 6h-18c-1.105 0-2-.895-2-2 0-1.105.895-2 2-2h18c1.105 0 2 .895 2 2 0 1.105-.895 2-2 2z" fill="#c7e2fc"/><path d="m15 6v17.284c-7.588 2.841-13 10.137-13 18.716 0 11.046 8.954 20 20 20s20-8.954 20-20c0-8.579-5.412-15.875-13-18.716v-17.284" fill="#c7e2fc"/><path d="m29 23.284v-11.25c-.487-2.123-1.148-4.142-1.951-6.034h-12.049v17.284c-7.588 2.841-13 10.137-13 18.716 0 3.033.695 5.897 1.903 8.473 1.328.341 2.696.527 4.097.527 11.491 0 20.919-12.016 21.909-27.336-.301-.13-.6-.264-.909-.38z" fill="#ebf7fe"/><path d="m22 62c8.199 0 15.237-4.939 18.325-12h-6.668c-3.622 0-7.096-1.439-9.657-4s-6.035-4-9.657-4h-12.343c0 11.046 8.954 20 20 20z" fill="#669e4f"/><path d="m14.343 42h-12.343c0 3.033.695 5.897 1.903 8.473 1.328.341 2.696.527 4.097.527 5.264 0 10.094-2.524 13.881-6.729-2.219-1.469-4.837-2.271-7.538-2.271z" fill="#78b75b"/><circle cx="35" cy="44" fill="#78b75b" r="2"/><circle cx="28" cy="36" fill="#78b75b" r="4"/><path d="m50 30v.343c0 2.341.93 4.587 2.586 6.243.905.905 1.414 2.133 1.414 3.414 0 2.209-1.791 4-4 4s-4-1.791-4-4c0-1.281.509-2.509 1.414-3.414 1.656-1.656 2.586-3.901 2.586-6.243z" fill="#c7e2fc"/><path d="m53.447 21.105-4-2-.447.895-.447-.895-4 2 .894 1.79 2.553-1.277v3.382h2v-3.382l2.553 1.277z" fill="#c18e59"/></svg>